<mxfile host="Electron" modified="2024-04-13T16:32:29.172Z" agent="Mozilla/5.0 (X11; Linux x86_64) AppleWebKit/537.36 (KHTML, like Gecko) draw.io/23.1.5 Chrome/120.0.6099.109 Electron/28.1.0 Safari/537.36" etag="714YTofsNe3Uq3D59CQD" version="23.1.5" type="device">
  <diagram name="Page-1" id="KiKgs43FmnppEHTvwVfH">
    <mxGraphModel dx="576" dy="334" grid="1" gridSize="10" guides="1" tooltips="1" connect="1" arrows="1" fold="1" page="1" pageScale="1" pageWidth="850" pageHeight="1100" math="1" shadow="0">
      <root>
        <mxCell id="0" />
        <mxCell id="1" parent="0" />
        <mxCell id="KHPpUvgpl0SijTJqGdt7-1" value="" style="endArrow=classic;dashed=1;html=1;rounded=0;endFill=1;strokeWidth=1;" edge="1" parent="1">
          <mxGeometry width="50" height="50" relative="1" as="geometry">
            <mxPoint x="240" y="520" as="sourcePoint" />
            <mxPoint x="640" y="520" as="targetPoint" />
          </mxGeometry>
        </mxCell>
        <mxCell id="KHPpUvgpl0SijTJqGdt7-19" value="$$x$$" style="edgeLabel;html=1;align=center;verticalAlign=middle;resizable=0;points=[];" vertex="1" connectable="0" parent="KHPpUvgpl0SijTJqGdt7-1">
          <mxGeometry x="0.9089" relative="1" as="geometry">
            <mxPoint x="26" y="-1" as="offset" />
          </mxGeometry>
        </mxCell>
        <mxCell id="KHPpUvgpl0SijTJqGdt7-3" value="" style="endArrow=classic;dashed=1;html=1;rounded=0;endFill=1;strokeWidth=1;" edge="1" parent="1">
          <mxGeometry width="50" height="50" relative="1" as="geometry">
            <mxPoint x="360" y="560" as="sourcePoint" />
            <mxPoint x="360" y="400" as="targetPoint" />
          </mxGeometry>
        </mxCell>
        <mxCell id="KHPpUvgpl0SijTJqGdt7-20" value="$$y$$" style="edgeLabel;html=1;align=center;verticalAlign=middle;resizable=0;points=[];" vertex="1" connectable="0" parent="KHPpUvgpl0SijTJqGdt7-3">
          <mxGeometry x="0.9146" y="-3" relative="1" as="geometry">
            <mxPoint x="6" y="-10" as="offset" />
          </mxGeometry>
        </mxCell>
        <mxCell id="KHPpUvgpl0SijTJqGdt7-4" value="" style="endArrow=classic;html=1;rounded=0;endFill=1;" edge="1" parent="1" source="KHPpUvgpl0SijTJqGdt7-8">
          <mxGeometry width="50" height="50" relative="1" as="geometry">
            <mxPoint x="280" y="560" as="sourcePoint" />
            <mxPoint x="600" y="400" as="targetPoint" />
          </mxGeometry>
        </mxCell>
        <mxCell id="KHPpUvgpl0SijTJqGdt7-18" value="$$x&#39;$$" style="edgeLabel;html=1;align=center;verticalAlign=middle;resizable=0;points=[];" vertex="1" connectable="0" parent="KHPpUvgpl0SijTJqGdt7-4">
          <mxGeometry x="0.3121" y="1" relative="1" as="geometry">
            <mxPoint x="37" y="-12" as="offset" />
          </mxGeometry>
        </mxCell>
        <mxCell id="KHPpUvgpl0SijTJqGdt7-5" value="" style="endArrow=classic;html=1;rounded=0;endFill=1;" edge="1" parent="1">
          <mxGeometry width="50" height="50" relative="1" as="geometry">
            <mxPoint x="380" y="560" as="sourcePoint" />
            <mxPoint x="300" y="400" as="targetPoint" />
          </mxGeometry>
        </mxCell>
        <mxCell id="KHPpUvgpl0SijTJqGdt7-17" value="$$y&#39;$$" style="edgeLabel;html=1;align=center;verticalAlign=middle;resizable=0;points=[];" vertex="1" connectable="0" parent="KHPpUvgpl0SijTJqGdt7-5">
          <mxGeometry x="0.8381" relative="1" as="geometry">
            <mxPoint x="10" y="-13" as="offset" />
          </mxGeometry>
        </mxCell>
        <mxCell id="KHPpUvgpl0SijTJqGdt7-7" value="" style="endArrow=none;html=1;rounded=0;endFill=0;" edge="1" parent="1" target="KHPpUvgpl0SijTJqGdt7-6">
          <mxGeometry width="50" height="50" relative="1" as="geometry">
            <mxPoint x="280" y="560" as="sourcePoint" />
            <mxPoint x="600" y="400" as="targetPoint" />
          </mxGeometry>
        </mxCell>
        <mxCell id="KHPpUvgpl0SijTJqGdt7-6" value="" style="ellipse;whiteSpace=wrap;html=1;aspect=fixed;fillColor=#fa6800;strokeColor=#C73500;fontColor=#000000;" vertex="1" parent="1">
          <mxGeometry x="310" y="530" width="20" height="20" as="geometry" />
        </mxCell>
        <mxCell id="KHPpUvgpl0SijTJqGdt7-9" value="" style="endArrow=none;html=1;rounded=0;endFill=0;" edge="1" parent="1" source="KHPpUvgpl0SijTJqGdt7-6" target="KHPpUvgpl0SijTJqGdt7-8">
          <mxGeometry width="50" height="50" relative="1" as="geometry">
            <mxPoint x="329" y="536" as="sourcePoint" />
            <mxPoint x="600" y="400" as="targetPoint" />
          </mxGeometry>
        </mxCell>
        <mxCell id="KHPpUvgpl0SijTJqGdt7-8" value="" style="ellipse;whiteSpace=wrap;html=1;aspect=fixed;fillColor=#6a00ff;strokeColor=#3700CC;fontColor=#ffffff;" vertex="1" parent="1">
          <mxGeometry x="515" y="435" width="10" height="10" as="geometry" />
        </mxCell>
        <mxCell id="KHPpUvgpl0SijTJqGdt7-12" value="" style="curved=1;endArrow=classic;html=1;rounded=0;exitX=1;exitY=0.5;exitDx=0;exitDy=0;exitPerimeter=0;endSize=3;" edge="1" parent="1">
          <mxGeometry width="50" height="50" relative="1" as="geometry">
            <mxPoint x="410" y="520" as="sourcePoint" />
            <mxPoint x="405" y="498" as="targetPoint" />
            <Array as="points">
              <mxPoint x="410" y="510" />
            </Array>
          </mxGeometry>
        </mxCell>
        <mxCell id="KHPpUvgpl0SijTJqGdt7-14" value="$$\Omega t$$" style="text;html=1;align=center;verticalAlign=middle;whiteSpace=wrap;rounded=0;" vertex="1" parent="1">
          <mxGeometry x="413" y="496" width="20" height="20" as="geometry" />
        </mxCell>
        <mxCell id="KHPpUvgpl0SijTJqGdt7-15" value="$$S$$" style="text;html=1;align=center;verticalAlign=middle;whiteSpace=wrap;rounded=0;" vertex="1" parent="1">
          <mxGeometry x="316" y="553" width="20" height="10" as="geometry" />
        </mxCell>
        <mxCell id="KHPpUvgpl0SijTJqGdt7-16" value="$$T$$" style="text;html=1;align=center;verticalAlign=middle;whiteSpace=wrap;rounded=0;" vertex="1" parent="1">
          <mxGeometry x="521" y="447" width="20" height="10" as="geometry" />
        </mxCell>
        <mxCell id="KHPpUvgpl0SijTJqGdt7-21" value="$$G$$" style="text;html=1;align=center;verticalAlign=middle;whiteSpace=wrap;rounded=0;" vertex="1" parent="1">
          <mxGeometry x="367" y="524" width="10" height="7" as="geometry" />
        </mxCell>
        <mxCell id="KHPpUvgpl0SijTJqGdt7-22" style="edgeStyle=orthogonalEdgeStyle;rounded=0;orthogonalLoop=1;jettySize=auto;html=1;exitX=0.5;exitY=1;exitDx=0;exitDy=0;" edge="1" parent="1" source="KHPpUvgpl0SijTJqGdt7-21" target="KHPpUvgpl0SijTJqGdt7-21">
          <mxGeometry relative="1" as="geometry" />
        </mxCell>
        <mxCell id="KHPpUvgpl0SijTJqGdt7-23" value="" style="ellipse;whiteSpace=wrap;html=1;aspect=fixed;" vertex="1" parent="1">
          <mxGeometry x="445" y="410" width="10" height="10" as="geometry" />
        </mxCell>
        <mxCell id="KHPpUvgpl0SijTJqGdt7-24" value="$$\omega$$" style="text;html=1;align=center;verticalAlign=middle;whiteSpace=wrap;rounded=0;" vertex="1" parent="1">
          <mxGeometry x="455" y="400" width="10" height="10" as="geometry" />
        </mxCell>
        <mxCell id="KHPpUvgpl0SijTJqGdt7-25" value="" style="ellipse;whiteSpace=wrap;html=1;aspect=fixed;" vertex="1" parent="1">
          <mxGeometry x="449.5" y="414.5" width="1" height="1" as="geometry" />
        </mxCell>
      </root>
    </mxGraphModel>
  </diagram>
</mxfile>
